<svg id="Capa_1" data-name="Capa 1" xmlns="http://www.w3.org/2000/svg" viewBox="0 0 176.35 237.42"><defs><style>.cls-1{fill:#fff;}</style></defs><polygon class="cls-1" points="142.13 44.04 142.13 51.11 120.36 39.91 120.36 32.83 142.13 44.04"/><polygon class="cls-1" points="110.68 32.78 110.68 39.81 64.22 63.04 64.22 56.01 110.68 32.78"/><polygon class="cls-1" points="142.13 60.49 142.13 67.57 120.36 56.36 120.36 49.28 142.13 60.49"/><polygon class="cls-1" points="110.68 49.23 110.68 56.27 64.22 79.5 64.22 72.46 110.68 49.23"/><polygon class="cls-1" points="142.13 76.95 142.13 83.97 142.02 83.97 120.36 72.81 120.36 65.74 142.13 76.95"/><path class="cls-1" d="M110.68,65.69v7l-40.08,20h0c-2.08-.32-4.2-.53-6.37-.65V88.92Z"/><path class="cls-1" d="M110.68,82.14v7L90.31,99.36A55.72,55.72,0,0,0,83,96Z"/><path class="cls-1" d="M110.68,98.6v7l-7.59,3.79a43.73,43.73,0,0,0-4.78-4.64Z"/><path class="cls-1" d="M158.59,36.18V152.93l-6.29,5.32V39.8l-.49-.28-9.67-5.62L120.36,21.27l-4.21-2.44-5.47,2.82L64.22,45.57l-9.68,5V92.22c-1.84.15-3.65.38-5.41.7h-.88V46.72l16-8.22,46.46-23.93,5.66-2.91,4,2.33,21.78,12.64,9.67,5.62Z"/><path class="cls-1" d="M107.67,139.15a69,69,0,0,1,.55,8.39q0,20.91-13.49,34.47T60.47,195.56q-20.91,0-35.29-13.9T10.8,147.4A46.06,46.06,0,0,1,25,113.21q14.25-14,35-14,15.82,0,28.07,7.22a37.74,37.74,0,0,1,16.92,20.43l-21.87,6.33Q76.43,120,60.06,120a25.12,25.12,0,0,0-18.85,7.85q-7.58,7.83-7.57,19.53A26.84,26.84,0,0,0,41.42,167a26,26,0,0,0,19.33,7.91,26.44,26.44,0,0,0,15.34-4.4,23.34,23.34,0,0,0,9-12.11H56.9V139.15Z"/><path class="cls-1" d="M141.91,125.39v70.72q0,10-6,16.1t-16,6h-1a45.41,45.41,0,0,1-34.6-19.06L98,189a21.15,21.15,0,0,0,17.65,10,5.17,5.17,0,0,0,4.35-5.37V114.75Z"/><polygon class="cls-1" points="142.13 115.18 120.11 104.53 120.11 82.51 142.13 93.16 142.13 115.18"/></svg>